<?xml version="1.0" encoding="utf-8"?>
<!-- Generator: Adobe Illustrator 24.2.1, SVG Export Plug-In . SVG Version: 6.00 Build 0)  -->
<svg version="1.1" id="Layer_1" xmlns="http://www.w3.org/2000/svg" xmlns:xlink="http://www.w3.org/1999/xlink" x="0px" y="0px"
	 viewBox="0 0 334.5 56.8" style="enable-background:new 0 0 334.5 56.8;" xml:space="preserve">
<style type="text/css">
	.st0{fill:#F26836;}
	.st1{fill:#34485B;}
</style>
<g>
	<g>
		<g id="XMLID_14_">
			<polygon class="st0" points="0,41.7 6.4,38.4 26.1,49.6 45.6,38.4 51.4,42 26.1,56.8 			"/>
		</g>
		<g id="XMLID_13_">
			<polygon class="st0" points="0,28.4 6.4,24.8 25.7,36.1 45.3,24.8 45.3,18.9 26.1,30.2 0,15.1 25.7,0 41.5,8.9 35.6,12.8 
				25.7,6.9 12.5,15.1 25.7,23 45.3,11.8 51.4,15.1 51.4,28.4 26.1,43.5 			"/>
		</g>
	</g>
	<g id="DIN_x5F_Next_x5F_LT_x5F_Pro_x5F_Light_x0A__4_">
		<path class="st1" d="M68.8,39.4c-0.2-0.2-0.2-0.4,0-0.6l1-1.2c0.2-0.2,0.4-0.2,0.6,0c1.8,1.4,4.7,2.8,7.9,2.8
			c4.4,0,7.1-2.2,7.1-5.6c0-2.7-1.5-4.7-6.6-5.4l-1.2-0.2c-5.4-0.7-8-3.3-8-7.3c0-4.8,3.4-7.7,8.7-7.7c3.1,0,6,0.9,7.9,2.3
			c0.2,0.1,0.2,0.4,0.1,0.6l-0.8,1.2c-0.2,0.2-0.4,0.2-0.6,0.1c-2.2-1.3-4.3-2-6.7-2c-3.9,0-6.2,2.2-6.2,5.4c0,2.8,1.8,4.6,6.5,5.2
			l1.2,0.2c5.6,0.7,8.1,3.3,8.1,7.4c0,4.7-3.3,8-9.7,8C74.4,42.6,70.7,41.1,68.8,39.4z"/>
		<path class="st1" d="M98.3,15c0-0.2,0.2-0.4,0.4-0.4h15.8c0.2,0,0.4,0.2,0.4,0.4v1.4c0,0.2-0.2,0.4-0.4,0.4h-13.9v10.3h12
			c0.2,0,0.4,0.2,0.4,0.4v1.4c0,0.2-0.2,0.4-0.4,0.4h-12V40h13.9c0.2,0,0.4,0.2,0.4,0.4v1.4c0,0.2-0.2,0.4-0.4,0.4H98.7
			c-0.2,0-0.4-0.2-0.4-0.4V15z"/>
		<path class="st1" d="M132,15c0.1-0.2,0.2-0.4,0.5-0.4h1.5c0.3,0,0.4,0.2,0.5,0.4l9.6,26.8c0.1,0.2,0,0.4-0.3,0.4h-1.6
			c-0.3,0-0.5-0.1-0.5-0.4l-2.4-6.8h-12l-2.4,6.8c-0.1,0.3-0.3,0.4-0.5,0.4h-1.6c-0.2,0-0.4-0.2-0.3-0.4L132,15z M138.4,32.8
			l-5.1-14.4h-0.1l-5.2,14.4H138.4z"/>
		<path class="st1" d="M169.5,42.2c-0.2,0-0.4-0.1-0.5-0.4l-5.8-12h-0.4h-7.3v11.9c0,0.2-0.2,0.4-0.4,0.4h-1.5
			c-0.2,0-0.4-0.2-0.4-0.4V15c0-0.2,0.2-0.4,0.4-0.4h9.3c5.2,0,8.4,2.9,8.4,7.6c0,3.8-2.1,6.5-5.6,7.3l6,12.2c0.2,0.2,0,0.5-0.2,0.5
			L169.5,42.2L169.5,42.2z M168.8,22.2c0-3.4-2.2-5.4-6.1-5.4h-7.3v10.9h7.3C166.7,27.7,168.8,25.8,168.8,22.2z"/>
		<path class="st1" d="M180.9,28.4c0-6.2,0.5-7.4,1.2-9.1c1-2.5,3.2-4.4,5.9-4.8c4.9-0.9,8.8,0.8,10.7,4.9c0.1,0.2,0.1,0.4-0.1,0.5
			l-1.3,0.6c-0.2,0.1-0.4,0-0.5-0.2c-1.2-2.3-3.2-3.9-6.3-3.9c-3.4,0-5.4,1.6-6.5,4.6c-0.4,1.1-0.6,2.8-0.6,7.4s0.2,6.3,0.6,7.4
			c1.1,3,3.1,4.6,6.5,4.6c3.1,0,5.1-1.6,6.3-3.9c0.1-0.2,0.3-0.3,0.5-0.2l1.3,0.6c0.2,0.1,0.2,0.3,0.1,0.5c-1.6,3.4-4.5,5.1-8.3,5.1
			c-4.3,0-7.3-2-8.7-6.2C181.2,35.1,180.9,33.2,180.9,28.4z"/>
		<path class="st1" d="M208.7,15c0-0.2,0.2-0.4,0.4-0.4h1.5c0.2,0,0.4,0.2,0.4,0.4v12.1h14.1V15c0-0.2,0.2-0.4,0.4-0.4h1.5
			c0.2,0,0.4,0.2,0.4,0.4v26.8c0,0.2-0.2,0.4-0.4,0.4h-1.5c-0.2,0-0.4-0.2-0.4-0.4V29.3H211v12.5c0,0.2-0.2,0.4-0.4,0.4h-1.5
			c-0.2,0-0.4-0.2-0.4-0.4L208.7,15L208.7,15z"/>
		<path class="st1" d="M238,39.4c-0.2-0.2-0.2-0.4,0-0.6l1-1.2c0.2-0.2,0.4-0.2,0.6,0c1.8,1.4,4.7,2.8,7.9,2.8
			c4.4,0,7.1-2.2,7.1-5.6c0-2.7-1.5-4.7-6.6-5.4l-1.2-0.2c-5.4-0.7-8-3.3-8-7.3c0-4.8,3.4-7.7,8.7-7.7c3.1,0,6,0.9,7.9,2.3
			c0.2,0.1,0.2,0.4,0.1,0.6l-0.8,1.2c-0.2,0.2-0.4,0.2-0.6,0.1c-2.2-1.3-4.3-2-6.7-2c-3.9,0-6.2,2.2-6.2,5.4c0,2.8,1.8,4.6,6.5,5.2
			l1.2,0.2c5.6,0.7,8.1,3.3,8.1,7.4c0,4.7-3.3,8-9.7,8C243.5,42.6,239.9,41.1,238,39.4z"/>
		<path class="st1" d="M273,42.2c-0.2,0-0.4-0.2-0.4-0.4v-25h-8.2c-0.2,0-0.4-0.2-0.4-0.4V15c0-0.2,0.2-0.4,0.4-0.4h18.7
			c0.2,0,0.4,0.2,0.4,0.4v1.4c0,0.2-0.2,0.4-0.4,0.4h-8.2v25c0,0.2-0.2,0.4-0.4,0.4L273,42.2L273,42.2z"/>
		<path class="st1" d="M296.3,15c0.1-0.2,0.2-0.4,0.5-0.4h1.5c0.3,0,0.4,0.2,0.5,0.4l9.6,26.8c0.1,0.2,0,0.4-0.3,0.4h-1.6
			c-0.3,0-0.5-0.1-0.5-0.4l-2.4-6.8h-12l-2.4,6.8c-0.1,0.3-0.3,0.4-0.5,0.4H287c-0.2,0-0.4-0.2-0.3-0.4L296.3,15z M302.8,32.8
			l-5.1-14.4h-0.1l-5.2,14.4H302.8z"/>
		<path class="st1" d="M332.4,42.2c-0.3,0-0.4-0.1-0.5-0.4l-7.1-11.8h0l-7.1,11.8c-0.1,0.2-0.3,0.4-0.5,0.4h-1.8
			c-0.2,0-0.3-0.2-0.2-0.5l8.4-14l-7.6-12.7c-0.2-0.2,0-0.5,0.2-0.5h1.8c0.3,0,0.4,0.1,0.5,0.4l6.3,10.4h0L331,15
			c0.2-0.2,0.3-0.4,0.5-0.4h1.8c0.2,0,0.3,0.2,0.2,0.5L326,27.7l8.5,14c0.1,0.2,0,0.5-0.2,0.5L332.4,42.2L332.4,42.2z"/>
	</g>
</g>
</svg>
