<?xml version="1.0" standalone="no"?>
<!DOCTYPE svg PUBLIC "-//W3C//DTD SVG 1.1//EN" "http://www.w3.org/Graphics/SVG/1.1/DTD/svg11.dtd">
<svg xmlns="http://www.w3.org/2000/svg">
<metadata>Copyright (C) 2021 by original authors @ fontello.com</metadata>
<defs>
<font id="fontello" horiz-adv-x="1000" >
<font-face font-family="fontello" font-weight="400" font-stretch="normal" units-per-em="1000" ascent="850" descent="-150" />
<missing-glyph horiz-adv-x="1000" />
<glyph glyph-name="copy" unicode="&#x25be;" d="M960 850h-714v-246h-246v-754h754v244h246v714c0 23-17 42-40 42l0 0z m-285-921h-594v594h165v-427h427l2-167z m246 246h-594v594h594v-594z m-477 256h139v-139h82v139h139v82h-139v139h-82v-139h-139v-82z" horiz-adv-x="1000" />

<glyph glyph-name="chemistry-flask" unicode="&#xe800;" d="M1005 13l-302 415v317h43v93h-43-368-45v-93h45v-318l-278-417c-19-28-21-63-5-93 18-34 55-55 98-55h765c43 0 80 22 98 57 15 31 12 66-8 94z m-395 732v-348l89-123c-38-13-92-22-146 4-63 30-130 33-186 28l61 92v347h182z m305-790h-765c-7 0-12 2-14 4l158 238c39 12 139 35 219-4 39-18 78-25 113-25 52 0 98 14 130 28l172-237c-2-2-6-4-13-4z" horiz-adv-x="1000" />

<glyph glyph-name="calendar" unicode="&#xe801;" d="M878 758h136v-908h-998v908h135v90h92v-92h543v92h92v-90z m46-181h-817v-635h817v635z m-727-92h181v-181h-181v181z" horiz-adv-x="1000" />

<glyph glyph-name="down-dir" unicode="&#xe802;" d="M540 587l-269-473-271 473 540 0z" horiz-adv-x="540" />

<glyph glyph-name="analytics" unicode="&#xe803;" d="M1001 575l-275-275-212 106-290-239-67 79 342 285 206-102 221 221 75-75z m-896-619h892v-106h-998v1000h106v-894z" horiz-adv-x="1000" />

<glyph glyph-name="bell" unicode="&#xe804;" d="M355 31h92c0-50 42-91 92-91 50 0 91 41 91 91h92c0-100-81-181-181-181-104 0-186 81-186 181z m113 725v94h91v-94c155-23 273-154 273-314v-173l113-282h-863l113 282v173c0 160 119 291 273 314l0 0z m273-506v190c0 125-102 227-227 227-125 0-228-102-228-227v-190l-68-173h591l-68 173z" horiz-adv-x="1000" />

<glyph glyph-name="close-modal" unicode="&#xe805;" d="M531 850c277 0 500-223 500-500s-223-500-500-500-500 223-500 500 223 500 500 500z m0-92c-225 0-408-183-408-408s183-408 408-408 409 183 409 408-184 408-409 408z m231-577l-165 165 165 165-65 65-165-165-165 165-66-65 165-165-164-165 65-65 165 164 164-164 66 65z" horiz-adv-x="1000" />

<glyph glyph-name="cloud" unicode="&#xe806;" d="M1016 269c0-150-123-273-273-273h-500c-125 0-227 102-227 227 0 92 56 173 137 208 15 163 150 292 317 292 125 0 235-73 287-181 144-9 259-127 259-273z m-773-181h500c100 0 181 81 181 181 0 100-81 181-181 181-4 0-9 0-13 0l-35-2-11 33c-31 90-116 152-214 152-125 0-227-102-227-227 0-2 0-2 0-4v-35l-36-9c-60-14-102-68-102-131 2-79 63-139 138-139z" horiz-adv-x="1000" />

<glyph glyph-name="cube" unicode="&#xe807;" d="M512 850c-5 0-9-2-13-2l-452-175c-17-6-29-23-29-40v-564c0-17 10-34 29-40l454-173c10-4 25-4 35 0l455 173c16 6 29 23 29 40v564c0 17-11 34-29 40l-457 173c-6 4-14 4-22 4l0 0z m6-90l331-127-331-127-331 127 331 127z m-409-193l361-138v-471l-361 138v471z m815 0v-471l-360-138v471l360 138z" horiz-adv-x="1000" />

<glyph glyph-name="database" unicode="&#xe808;" d="M839 696c0-2 0-4 0-4 0 4 0 8 2 10 0-4-2-6-2-10 2 4 2 6 4 10-2-4-4-8-9-12 3 2 5 6 5 6-5-4-9-11-15-15 2 2 4 4 8 7-14-11-29-17-46-25 5 2 7 2 11 4-48-21-98-32-150-38 4 0 8 0 10 2-73-10-150-10-225-6-20 2-39 4-60 6 4 0 8 0 10-2-50 6-102 17-150 38 5 0 9-2 13-4-17 6-31 14-44 25 2-3 4-5 6-7-6 4-12 11-16 17 2-2 4-6 6-8-2 4-4 8-6 12 2-4 2-6 4-10-2 4-2 6-4 10 0-4 0-8 2-10 0 4 0 6 0 10 0-4 0-8-2-10 0 4 2 6 2 10 0-4-2-8-2-12 2 4 4 8 8 12-4-2-6-4-8-8 4 6 10 10 16 16-2-2-6-4-8-6 15 11 29 19 44 25-4-2-6-2-11-4 48 21 98 31 150 38-4 0-8 0-10-3 75 11 150 13 225 7 21-2 40-4 60-7-4 0-8 0-10 3 52-9 102-17 150-38-4 2-6 2-10 4 16-6 31-14 43-25-2 2-6 4-8 6 8-4 15-10 17-14 0 2-2 4-5 6 2-4 7-8 9-12-2 4-2 6-4 10 2-4 2-6 2-10 0 4 0 8-2 10 0 0 0-2 0-4 0-11 4-21 12-29 6-7 19-13 29-13 23 0 42 19 42 42 0 50-44 83-85 100-61 27-128 39-192 48-75 8-152 10-229 2-67-4-134-15-196-40-13-4-27-10-40-16-12-7-23-15-31-23-17-13-31-32-35-52-5-23 0-48 12-67 15-21 33-35 56-46 52-29 115-42 173-50 79-10 159-14 236-8 37 2 77 6 114 14 29 7 59 13 88 21 25 9 50 19 71 34 18 12 37 27 45 47 7 13 9 23 9 38 0 21-19 42-42 42-19-5-37-21-37-44l0 0z m0-458c0-3 0-5 0-5 0 5 0 9 2 11 0-4-2-6-2-11 2 5 2 7 4 11-2-4-4-9-9-13 3 2 5 4 5 7-5-5-9-11-15-15 2 2 6 4 8 6-14-10-29-19-43-25 4 2 6 2 10 4-48-20-98-31-150-37 4 0 8 0 10 2-75-10-150-13-225-6-20 2-39 4-60 6 4 0 8 0 10-2-50 6-102 17-150 37 5-2 7-2 11-4-17 6-31 15-44 25 2-2 4-4 6-6-6 4-12 10-16 17 2-2 4-7 6-9-2 4-6 9-8 13 2-4 2-6 4-11-2 5-2 7-2 11 0-4 0-9 2-11 0 9 0 17 0 25v57 131 31c0 21-19 42-42 42s-42-19-42-42c0-50 46-83 86-100 60-27 125-39 191-48 75-8 153-10 230-2 64 6 131 17 193 40 15 6 27 10 40 18 12 7 23 13 31 21 17 13 31 32 36 52 2 7 2 13 2 19 0 21-19 42-42 42s-42-19-42-42v-81-129c5-11 5-21 5-29 0-21 18-42 41-42 23 0 42 19 42 42v81 127 29c0 21-19 42-42 42-23 0-41-19-41-42 0-2 0-4 0-4 0 4 0 8 2 10 0-4-2-6-2-10 2 4 2 6 4 10-2-4-4-8-9-12 2 2 5 6 7 8-5-6-11-10-17-17 2 3 6 5 8 7-14-11-29-19-43-25 4 2 6 2 10 4-48-21-98-31-150-38 4 0 8 0 10 2-75-10-150-12-225-6-20 2-39 4-60 6 4 0 8 0 10-2-50 7-102 17-150 38 5-2 7-2 11-4-17 6-31 14-44 25 2-2 6-4 8-7-6 5-12 11-16 17 2-2 4-6 6-8-2 4-6 8-8 12 2-4 2-6 4-10-2 4-2 6-2 10 0-4 0-8 2-10 0 2 0 4 0 4 0 21-19 42-42 42s-41-19-41-42v-135-82-18c0-15 4-30 10-42 8-17 23-29 40-40 16-12 33-18 52-27 41-16 87-27 131-35 119-19 244-19 362 2 46 8 92 21 134 40 33 14 64 39 77 75 2 8 4 16 4 25 0 20-19 41-42 41-23-2-41-19-41-41l0 0z m0 458v-71-167-200-170c0-28 0-55 0-80 0-2 0-4 0-6 0 4 0 8 2 11 0-5-2-7-2-11 2 4 2 6 4 11-2-5-4-9-9-13 2 2 5 6 7 8-5-6-11-10-17-16 2 2 6 4 8 6-14-11-29-19-43-25 4 2 6 2 10 4-48-21-98-31-150-37 4 0 8 0 10 2-75-11-150-13-225-7-20 2-39 5-60 7 4 0 8 0 10-2-50 6-102 16-150 37 5-2 7-2 11-4-17 6-31 14-44 25 2 0 4-2 6-4-6 4-12 10-16 16 2-2 4-6 6-8-2 4-6 8-8 13 2-5 2-7 4-11-2 4-2 6-2 11 0-5 0-9 2-11 0 6 0 15 0 21v50 167 202 173c0 27 0 54 0 81 0 2 0 4 0 6 0-4 0-8-2-10 0 4 2 6 2 10 0-6-2-10-2-14 2 4 4 8 8 12-4-2-6-4-8-8 4 6 10 10 16 16-2-2-6-4-8-6 15 11 29 19 44 25-4-2-6-2-11-4 48 21 98 31 150 38-4 0-8 0-10-3 75 11 150 13 225 7 21-2 40-4 60-7-4 0-8 0-10 3 52-9 102-17 150-38-4 2-6 2-10 4 16-6 31-14 43-25-2 2-6 4-8 6 8-4 15-10 17-14 0 2-2 4-5 6 2-4 7-8 9-12-2 4-2 6-4 10 2-4 2-6 2-10 0 4 0 8-2 10 0 0 0-2 0-4 0-11 4-21 12-29 6-7 19-13 29-13 23 0 42 19 42 42 0 14-4 31-13 44-10 14-20 25-35 35-10 8-23 15-35 21-19 8-36 14-55 21-41 12-85 21-129 27-48 6-98 8-148 8-52 0-102-4-154-12-39-7-79-15-116-27-55-19-125-50-128-117 0-17 0-36 0-52v-121-156-161-129-67c0-16 5-33 13-48 17-25 44-43 71-56 35-16 73-27 112-35 48-11 96-15 144-19 50-2 102-2 152 2 48 4 96 10 142 21 35 8 73 21 104 37 25 13 50 32 62 57 7 12 9 27 9 41v28 106 152 162 142 85 11c0 21-19 42-42 42-19-3-37-19-37-42l0 0z" horiz-adv-x="1000" />

<glyph glyph-name="down-arrow" unicode="&#xe809;" d="M16 348c0 278 223 500 500 500s500-222 500-500c0-277-225-500-500-500s-500 223-500 500z m89 0c0-225 184-408 409-408 225 0 410 183 410 408 0 225-183 409-408 409s-411-184-411-409z m651 61l-60 60-180-180-180 180-60-60 239-240 1 1 0-1 240 240z" horiz-adv-x="1000" />

<glyph glyph-name="left-dir" unicode="&#xe80a;" d="M510 93l-510 256 510 259 0-515z" horiz-adv-x="510" />

<glyph glyph-name="right-dir" unicode="&#xe80b;" d="M0 608l510-257-510-258 0 515z" horiz-adv-x="510" />

<glyph glyph-name="up-dir" unicode="&#xe80c;" d="M0 114l269 473 271-473-540 0z" horiz-adv-x="540" />

<glyph glyph-name="edit" unicode="&#xe80d;" d="M811 487h-273v273h-364v-819h637v546z m-65 91l-117 117v-117h117z m-144 273l300-300v-700h-819v1000h519z m-337-455h182v-91h-182v91z m0-182h455v-91h-455v91z" horiz-adv-x="1000" />

<glyph glyph-name="arrows" unicode="&#xe80e;" d="M733 267h-547v-243h547l121 122-121 121z m-26-183h-461v123h461l61-61-61-62z m-400 364h547v242h-547l-121-121 121-121z m27 182h460v-122h-460l-62 61 62 61z" horiz-adv-x="1000" />

<glyph glyph-name="printer" unicode="&#xe80f;" d="M810 487h-143v95l-24 24h-286l-24-24v-95h-142l-24-24v-286l24-23h142v-72l24-24h286l24 24v72h143l23 23v286l-23 24z m-429 71h238v-71h-238v71z m238-452h-238v119h238v-119z m167 95h-119v24h24v48h-381v-48h23v-24h-119v238h572v-238z" horiz-adv-x="1000" />

<glyph glyph-name="round-plus" unicode="&#xe810;" d="M235 358c0 150 122 272 273 272 150 0 272-122 272-272 0-151-122-273-272-273-151 0-273 122-273 273m-61 0c0-184 150-334 334-334s333 150 333 334c0 184-149 333-333 333s-334-149-334-333m303 151v-121h-121v-61h121v-121h61v121h121v61h-121v121h-61z" horiz-adv-x="1000" />

<glyph glyph-name="round-close" unicode="&#xe811;" d="M315 550c106 107 279 107 386 0 106-106 106-279 0-385-107-107-280-107-386 0-107 106-107 279 0 385m-43 43c-130-130-130-341 0-471s341-130 471 0 131 341 0 471-341 131-471 0m321-107l-85-86-86 86-43-43 86-85-86-86 43-43 86 86 85-86 43 43-86 86 86 85-43 43z" horiz-adv-x="1000" />

<glyph glyph-name="ok" unicode="&#xe812;" d="M0 339q0-35 24-60l246-239q24-25 60-25 36 0 60 25l505 495q25 24 25 59t-25 58q-25 25-60 25t-60-25l-445-435-185 181q-25 24-60 24t-61-24q-24-24-24-59z" horiz-adv-x="920.4" />

<glyph glyph-name="share" unicode="&#xe813;" d="M656 145c0 33 27 60 61 60s60-27 60-60c0-34-27-61-60-61s-61 27-61 61m-424 212c0 33 27 61 60 61s61-28 61-61c0-34-27-61-61-61s-60 27-60 61m424 212c0 34 27 61 61 61s60-27 60-61c0-33-27-61-60-61s-61 28-61 61m-61 0c0-3 1-5 1-8l-224-112c-22 18-49 29-80 29-67 0-121-54-121-121s54-121 121-121c31 0 58 11 80 29l224-112c0-3-1-5-1-8 0-67 55-121 122-121s121 54 121 121c0 67-54 121-121 121-43 0-80-22-102-55l-209 105c5 13 8 26 8 41 0 15-3 29-8 41l209 105c22-33 59-55 102-55 67 0 121 54 121 121 0 67-54 121-121 121s-122-54-122-121" horiz-adv-x="1000" />

<glyph glyph-name="trash" unicode="&#xe814;" d="M606 602l-31 91h-165l-30-91h-190v-61h60v-515h485v515h61v61h-190z m69-515h-364v454h364v-454z m-258 298h51v-126h-51v126z m101 0h51v-126h-51v126z" horiz-adv-x="1000" />

<glyph glyph-name="copy-paste" unicode="&#xe815;" d="M798 694h-370c-20 0-37-17-37-37v-184h-185c-20 0-37-17-37-38l0-371c0-20 17-36 37-36h370c21 0 38 17 38 37v185h185c21 0 37 17 37 37v369c0 21-17 38-38 38z m-258-592h-296v296h296v-296z m221 222h-148l0 110c0 21-17 38-38 38h-109l0 148h295v-296z" horiz-adv-x="1000" />

<glyph glyph-name="help" unicode="&#xe816;" d="M736 617c-63 62-148 98-236 98s-173-36-236-98-97-147-97-236c0-88 35-173 97-235s148-98 236-98 173 35 236 98 97 147 97 235c0 89-35 173-97 236z m-43-429c-51-51-120-80-193-80s-142 29-193 80c-51 51-80 121-80 193s29 142 80 194c51 51 121 80 193 80s142-29 193-80c52-52 80-121 80-194s-28-142-80-193z m-88 306c10-24 5-51-11-71-11-14-24-26-38-37-5-4-9-8-13-12-8-6-12-15-11-24 0-11-1-21-1-31v0c0-2-1-5-3-7-1-1-4-2-6-2h-24v1h-24c-2-1-4 0-6 2-1 1-2 3-2 5-1 21 0 42 5 63 2 10 7 19 15 26 6 7 14 14 21 20 7 7 16 14 24 21 16 13 14 37-6 47-12 7-26 8-38 3-12-4-23-13-28-26-1-4-3-8-4-12-1-6-4-8-10-7l-47 5c-3 1-5 2-7 4-1 2-2 4-1 7 2 21 11 41 26 56 14 16 34 26 55 30 28 6 57 3 84-8 23-10 42-29 50-53z m-82-232c6-7 10-15 10-24 0-14-8-26-21-31s-27-2-36 7c-10 10-13 24-8 37 6 12 18 20 31 20 9 0 18-3 24-9z" horiz-adv-x="1000" />

<glyph glyph-name="up-s-arrow" unicode="&#xe817;" d="M92 48l-92 87 500 475 500-475-92-87-408 388-408-388z" horiz-adv-x="1000" />

<glyph glyph-name="grid-view" unicode="&#xe818;" d="M250 850h246v-246h-246v246z m377 0h246v-246h-246v246z m377 0h246v-246h-246v246z m-754-377h246v-246h-246v246z m377 0h246v-246h-246v246z m377 0h246v-246h-246v246z m-754-377h246v-246h-246v246z m377 0h246v-246h-246v246z m377 0h246v-246h-246v246z" horiz-adv-x="1500" />

<glyph glyph-name="area-graph" unicode="&#xe819;" d="M994 800c-6 0-13-6-13-6l-237-619-225 156c0 0-6 0-13 0s-6-6-12-6l-244-400c0-6 0-13 0-13 0-6 6-6 13-6h968c7 0 13 6 13 13v487 7l-244 381c0 6 0 6-6 6l0 0z" horiz-adv-x="1500" />

<glyph glyph-name="bar-graph" unicode="&#xe81a;" d="M288-150h-244v725h244v-725z m331 0h-238v538h244l-6-538z m337 0h-243v1000h243v-1000z" horiz-adv-x="1000" />

<glyph glyph-name="pie-chart" unicode="&#xe81b;" d="M863 275l0 0c0-237-194-425-432-425-237 0-431 194-431 431s194 432 431 432v-438l432 0z m-294 138v437c237 0 431-194 431-431v-6l-431 0z" horiz-adv-x="1000" />

<glyph glyph-name="number" unicode="&#xe81c;" d="M213 850c-119 0-213-94-213-212v-575c0-119 94-213 213-213h575c118 0 212 94 212 213v575c0 118-94 212-212 212l-575 0z m293-719h-306v57l144 162c19 25 37 44 44 63 6 18 12 31 12 43 0 19-6 32-12 44-13 13-25 19-44 19-19 0-38-6-50-19-6-19-13-37-13-62h-87l0 0c0 37 12 75 37 100 25 25 63 43 113 43 44 0 81-12 106-37 25-25 38-56 38-94 0-25-7-50-25-75-7-19-32-50-69-87l-81-88 0 0h187v-69z m257 0h-88v369h-94v63l182 18v-450z" horiz-adv-x="1000" />

<glyph glyph-name="scatter-plot" unicode="&#xe81d;" d="M944-38h-806c-13 0-25 13-25 25v807c0 31-25 56-57 56s-56-25-56-56v-832c0-62 50-112 113-112h831c31 0 56 25 56 56 0 31-25 56-56 56m-613 388c63 0 113 50 113 113 0 62-50 112-113 112-62 0-112-50-112-112 6-63 56-113 112-113m394 56c94 0 169 75 169 169 0 94-75 169-169 169-94 0-169-75-169-169 0-94 75-169 169-169m-144-281c44 0 82 38 82 81 0 44-38 82-82 82-43 6-81-32-81-75 0-50 38-88 81-88" horiz-adv-x="1000" />

<glyph glyph-name="connectors" unicode="&#xe81e;" d="M431 173c-62 0-85 17-85 62v340c0 23 0 58 62 58l282 0 0-460-259 0z m359 12l210 0v103l-210 0 0 237 210 0v102l-210 0 0 225h-102l0-117-282 0c-183 0-164-91-164-158l0-117-127 0c-111 0-117-93-117-160v-450h102v448c0 29 0 60 42 60l100 0 0-120c0-113 85-165 187-165l256 0 0-111h103l2 223z" horiz-adv-x="1000" />

<glyph glyph-name="new" unicode="&#xe81f;" d="M961 850h-714v-245h-247v-755h755v245h245v714c1 23-17 41-39 41z m-287-920h-593v593h166v-427h427v-166z m246 246h-593v593h593v-593z m-476 337h140v140h81v-140h140v-81h-140v-140h-81v140h-140v81z" horiz-adv-x="1000" />

<glyph glyph-name="user" unicode="&#xe820;" d="M773 45c-68 77-167 123-273 123s-205-46-273-123c73-65 168-104 273-104 105 0 200 39 273 104m-607 68c85 92 205 146 334 146s249-54 334-146c47 67 75 149 75 237 0 226-183 409-409 409s-409-183-409-409c0-88 28-170 75-237z m334 192c-100 0-182 81-182 181 0 101 82 182 182 182 100 0 182-81 182-182 0-100-82-181-182-181m0 91c50 0 91 40 91 90 0 51-41 91-91 91-50 0-91-40-91-91 0-50 41-90 91-90m0-546c-276 0-500 224-500 500s224 500 500 500c276 0 500-224 500-500s-224-500-500-500" horiz-adv-x="1000" />

<glyph glyph-name="down-s-arrow" unicode="&#xe821;" d="M908 610l92-87-500-475-500 475 92 87 408-388 408 388z" horiz-adv-x="1000" />

<glyph glyph-name="headphone" unicode="&#xe822;" d="M733-19c-20-12-52-6-79-7-3 0-8 8-11 12-43 64-136 75-191 23-33-31-38-78-12-113 46-63 156-61 198 4 11 15 21 21 38 19 59-10 101 18 140 57 61 62 95 136 110 220 3 13 10 28 20 37 75 71 71 213-9 279-9 8-17 20-21 31-62 179-225 302-406 306-190 4-362-119-426-305-3-9-7-20-14-26-66-51-79-120-65-196 14-71 66-119 132-125 40-3 55 10 55 50 0 78 0 156 1 234 0 26-3 48-27 61 52 141 195 236 344 231 142-4 284-105 324-233-26-9-27-31-27-55 1-77 1-153 1-229 0-51 9-60 63-59-19-92-58-169-138-216" horiz-adv-x="1000" />

<glyph glyph-name="back-arrow" unicode="&#xe823;" d="M757 219l-67 31c-57 26-120 40-183 40h-45v-66c0-11-7-21-17-26-4-2-9-3-13-3-6 0-12 2-18 6l-187 143c-8 6-12 14-12 24 0 9 4 17 12 23l185 143c8 7 21 8 31 3 10-5 16-15 16-26v-66h53c125 0 237-81 275-200 6-19-13-35-30-26z m-255 631c275 0 500-225 500-500 0-276-225-501-500-501-276 0-500 225-500 501 0 275 224 500 500 500m0-903c222 0 402 180 402 403s-180 402-402 402c-223 0-402-180-402-402 0-222 179-403 402-403" horiz-adv-x="1000" />

<glyph glyph-name="team" unicode="&#xe824;" d="M890 338c29 25 48 60 48 100 0 72-59 131-132 131s-131-59-131-131c0-40 19-78 48-100-25-13-46-28-63-48-22 18-47 31-75 41 50 29 84 82 84 144 0 92-75 165-165 165-91 0-164-75-164-165 0-60 33-115 83-144-27-10-52-23-75-41-17 20-40 37-63 48 30 25 48 60 48 100 0 72-58 131-131 131-73 0-131-59-131-131 0-40 19-78 48-100-73-32-119-98-119-175 0-23 19-44 44-44h206c0-9-2-19-2-27 0-23 19-44 44-44h421c22 0 43 19 43 44 0 8 0 18-2 27h206c23 0 44 19 44 44-4 77-50 143-114 175l0 0z m-173 100c0 47 39 87 87 87 48 0 88-40 88-87 0-48-40-88-88-88-48 0-87 40-87 88z m-340 37c0 67 54 123 123 123 67 0 123-54 123-123 0-67-54-123-123-123-67 0-123 54-123 123z m-271-37c0 47 40 87 88 87 48 0 87-40 87-87 0-48-39-88-87-88-48 0-88 40-88 88z m-62-275c0 83 69 152 152 152 46 0 87-21 117-55-25-27-44-60-55-97l-214 0z m666-71h-420c0 8 0 18 2 27 2 14 6 29 10 44 8 20 19 41 33 60 11 12 21 23 32 33 35 29 83 48 133 48 50 0 98-19 133-48 13-10 23-21 32-33 14-19 25-38 33-60 4-15 8-30 10-44 0-9 2-19 2-27l0 0z m34 71c-11 37-29 70-54 97 27 34 68 55 116 55 84 0 152-69 152-152l-214 0z" horiz-adv-x="1000" />

<glyph glyph-name="filter" unicode="&#xe826;" d="M340 764c-18 29-50 50-87 50-36 0-68-21-86-50h-164v-100h164c18-30 50-50 86-50 37 0 69 20 87 50h663v100h-663z m413-500c37 0 69 20 87 50h163v100h-163c-18 29-50 50-87 50-36 0-68-21-86-50h-664v-100h664c18-30 50-50 86-50z m-250-150c-36 0-68-21-86-50h-414v-100h414c18-30 49-51 86-51s69 21 87 51h413v100h-413c-18 29-50 50-87 50z" horiz-adv-x="1000" />

<glyph glyph-name="dropdown-arrow" unicode="&#xe827;" d="M514 250l-409 390-91-88 500-475 500 475-92 88-408-390z" horiz-adv-x="1000" />

<glyph glyph-name="duplicate" unicode="&#xe828;" d="M72-150h554c31 0 56 25 56 56v277h277c32 0 55 25 55 57v554c2 31-23 56-55 56h-554c-31 0-56-25-56-56v-277h-277c-31 0-56-25-56-57v-556c0-29 25-54 56-54l0 0z m390 888h441v-444h-221v166c0 32-25 57-56 57h-165v221z m-334-332h444v-444h-444v444z" horiz-adv-x="1000" />

<glyph glyph-name="experimentation" unicode="&#xe829;" d="M1000 750v-100h-664c-17-30-49-50-86-50s-69 20-86 50h-164v100h164c17 30 49 50 86 50s69-20 86-50h664z m-500-650c-37 0-69-20-86-50h-414v-100h414c17-30 49-50 86-50 37 0 69 20 86 50h414v100h-414c-17 30-49 50-86 50z m250 350c-37 0-69-20-86-50h-664v-100h664c17-30 49-50 86-50s69 20 86 50h164v100h-164c-17 30-49 50-86 50z" horiz-adv-x="1000" />

<glyph glyph-name="function" unicode="&#xe82a;" d="M1011 345c0-272-223-495-495-495-272 0-495 223-495 495 0 272 223 495 495 495 272 0 495-223 495-495z m-99 0c0 218-178 396-396 396-219 0-396-178-396-396 0-219 177-396 396-396 218 0 396 179 396 396z m-425 109l-29-124c-14-59-29-99-45-123-15-25-29-46-50-60-21-14-39-21-64-21-14 0-25 4-35 11-10 4-10 14-10 20 0 4 4 15 10 21 4 4 15 10 25 10 10 0 14 0 21-4 6-4 4-10 4-14 0-5 0-11-4-15-5-4-5-4-5-4l0 0c0 0 0 0 4 0 5 0 11 0 15 4 10 11 14 21 21 29 4 10 10 29 20 64l54 208h-39l10 29c14 0 25 0 29 4s10 15 20 25c21 39 40 64 60 78s46 25 74 25c15 0 29-4 35-10 11-11 15-15 15-25 0-10-4-14-10-21-5-4-11-10-21-10-4 0-14 0-21 4 0 4-4 11-4 15s0 10 4 14c5 4 5 10 5 10v9h-5c-10 0-20-4-28-21-21-21-36-54-46-99h39l-10-29h-39z m53-39l71 10c10-20 20-39 24-64 15 21 21 35 29 46 8 10 15 14 21 20 4 5 10 5 20 5 4 0 15 0 15-5 0-4 4-10 4-14 0-4 0-10-4-14-4-5-11-5-15-5-4 0-10 0-14 0s-10 0-10 0c-5 0-11 0-15-4s-14-14-25-35c11-39 21-64 25-70 4-4 10-10 10-10 5 0 5 0 11 4 4 4 10 10 14 21l4-5c-10-20-24-28-35-39-10-4-14-10-24-10s-15 0-21 4c-4 4-10 10-14 21-5 10-11 20-15 39-14-21-25-35-35-46s-14-14-21-14c-4-4-10-4-20-4-4 0-11 0-15 4-4 4-4 10-4 14s0 11 4 15c4 4 11 4 15 4s10 0 10-4c4-4 10-4 15-4s4 0 10 0c4 0 10 4 14 14 4 4 11 15 21 25-10 45-21 74-29 85-4 4-10 10-14 10-5 0-11 0-15 0l8 6z" horiz-adv-x="1000" />

<glyph glyph-name="gear" unicode="&#xe82b;" d="M659-33l-10-117h-267l-12 117c-42 16-81 39-117 66l-108-48-129 230 96 68c-5 23-7 44-7 67 0 23 2 46 7 67l-96 68 133 230 108-48c36 29 75 52 117 66l8 117h265l12-117c42-16 82-39 117-66l108 48 134-230-96-68c4-23 6-44 6-67 0-23-2-46-6-67l96-68-134-230-108 48c-35-27-75-50-117-66z m-83 68l29 9c50 14 94 39 132 75l22 21 88-40 50 85-77 57 8 29c6 25 9 50 9 75 0 25-2 52-9 75l-8 29 77 56-50 86-88-34-22 21c-38 36-82 63-132 75l-29 9-10 95h-100l-11-95-29-9c-50-14-94-39-131-75l-23-21-88 40-50-85 78-57-9-29c-6-25-8-50-8-75 0-25 2-52 8-75l9-29-78-56 50-86 88 40 23-21c37-35 81-62 131-75l29-8 11-96h100l10 89z m-60 223c50 0 91 42 91 92 0 50-41 92-91 92-50 0-92-42-92-92 0-50 42-92 92-92z m0-89c-100 0-182 81-182 181s82 181 182 181 181-81 181-181-81-181-181-181z" horiz-adv-x="1000" />

<glyph glyph-name="hamburger" unicode="&#xe82c;" d="M16 300v100h1000v-100h-1000z m0-350v100h1000v-100h-1000z m0 700v100h1000v-100h-1000z" horiz-adv-x="1000" />

<glyph glyph-name="microphone" unicode="&#xe82d;" d="M878 396h-89c0-148-121-271-271-271h-2c-150 0-271 121-271 271h-92c0-186 140-338 317-361l1-93h-137v-90h363v90h-135v93c179 23 316 175 316 361z m-362-181c100 0 181 81 181 181v271c0 100-81 181-181 181s-182-81-182-181v-271c0-100 82-181 182-181z m-90 452c0 50 40 89 90 89 50 0 89-39 89-89v-271c0-50-39-90-89-90-50 0-90 40-90 90v271z" horiz-adv-x="1000" />

<glyph glyph-name="multi-directional-arrows" unicode="&#xe82e;" d="M234 759l-89-91 91-92h690v183h-692z m781 90v-365h-818l-181 184 181 181h818z m-129-815l-91 92h-690v-184h690l91 92z m-870 181h818l182-181-182-183h-818v364z" horiz-adv-x="1000" />

<glyph glyph-name="pencil" unicode="&#xe82f;" d="M739 850l-632-631-91-369 368 92 632 631-277 277z m139-275l-58-58-139 138 58 58 139-138z m-544-544l-183-46 46 184 414 415 138-138-415-415z" horiz-adv-x="1000" />

<glyph glyph-name="plus-sign" unicode="&#xe830;" d="M516 850c277 0 500-223 500-500s-223-500-500-500-500 223-500 500 223 500 500 500z m0-92c-225 0-409-183-409-408s184-408 409-408 408 183 408 408-183 408-408 408z m46-362h181v-92h-181v-181h-92v181h-181v92h181v181h92v-181l0 0z" horiz-adv-x="1000" />

<glyph glyph-name="search" unicode="&#xe831;" d="M782 167l234-234-79-71-219 221c-75-60-169-96-271-96-238 0-431 194-431 432-2 237 191 431 431 431 240 0 431-194 431-431 0-102-35-198-96-271v19z m-335-65c175 0 317 142 317 317 0 175-142 316-317 316-175 0-317-141-317-316-2-175 142-317 317-317z" horiz-adv-x="1000" />

<glyph glyph-name="searchstax-logo" unicode="&#xe832;" d="M84 131l69 36c6 4 15 4 21 0l329-188c6-4 15-4 21 0l323 188c6 4 15 4 21 0l62-40c15-8 13-29 0-35l-408-240c-6-4-15-4-21 0l-419 244c-14 8-12 29 2 35z m-2 238l71 39c6 5 15 5 21 0l323-187c6-4 15-4 21 0l325 187c6 5 10 11 10 19v56c0 17-19 27-31 19l-298-175c-6-4-15-4-21 0l-423 242c-14 8-14 29 0 37l415 242c6 4 14 4 21 0l237-135c15-9 15-28 2-36l-64-42c-7-4-15-4-23 0l-150 90c-6 4-15 4-23 0l-194-121c-12-8-12-27 0-35l194-117c6-4 14-4 21 0l325 188c6 4 14 4 21 0l87-48c6-4 10-11 10-19v-210c0-9-4-15-10-19l-427-254c-6-5-15-5-21 0l-419 241c-14 9-14 29 0 38z" horiz-adv-x="1000" />

<glyph glyph-name="sharing" unicode="&#xe833;" d="M197 258c50 0 92 42 92 92 0 50-42 92-92 92-50 0-92-42-92-92 0-50 42-92 92-92z m637-316c50 0 92 41 92 91 0 50-42 92-92 92-50 0-91-42-91-92 0-52 41-91 91-91z m0 635c50 0 92 42 92 92 0 50-42 91-92 91-50 0-91-41-91-91 0-50 41-92 91-92z m-466-164c6-19 10-40 10-63 0-23-4-44-10-62l312-157c34 50 88 84 152 84 100 0 182-82 182-182 0-100-82-181-182-181-100 0-181 81-181 181 0 5 0 9 0 13l-335 169c-32-27-73-44-119-44-100-2-181 79-181 179s81 181 181 181c46 0 87-16 119-43l335 168c0 4 0 9 0 13 0 100 81 181 181 181 100 0 184-81 184-181 0-100-82-181-182-181-64 0-118 33-152 83l-314-158z" horiz-adv-x="1000" />

<glyph glyph-name="solr" unicode="&#xe834;" d="M857 715l-531-492 286 619c91-19 177-63 245-127l0 0z m159-365c0-67-13-131-38-192l-556-66 590 329c2-23 4-48 4-71l0 0z m-436 496l-329-586 65 550c64 28 131 40 200 40 20 0 41 0 64-4z m-481-217c46 67 104 121 175 159l-104-515-71 356z m906-177l-621-287 492 533c65-69 110-154 129-246l0 0z m-989-60c4 54 18 106 39 156l34-288-73 132z m704-498c-50-23-106-38-161-42l-137 77 298-35z m237 221c-37-71-91-132-158-178l-365 73 523 105z" horiz-adv-x="1000" />

<glyph glyph-name="support" unicode="&#xe835;" d="M749-19c-21-12-52-6-79-6-4 0-9 8-13 12-41 65-135 76-191 23-34-31-38-77-13-112 46-63 156-61 198 4 10 17 21 21 38 19 58-11 102 19 139 58 61 61 94 136 111 221 2 13 10 27 18 35 75 71 71 213-8 280-8 8-17 18-21 31-58 177-221 300-402 304-190 4-362-121-427-304-4-11-6-21-15-27-64-52-79-119-64-196 12-71 66-119 131-125 40-4 54 10 54 50 0 77 0 156 0 233 0 25-2 48-27 61 56 141 198 237 348 231 144-4 283-104 325-233-25-11-27-32-27-57 0-77 0-152 0-229 0-50 10-60 63-58-19-90-59-167-138-215z" horiz-adv-x="1000" />

<glyph glyph-name="trash-can" unicode="&#xe836;" d="M582 715l-14 45h-117l-14-45h145l0 0z m-437-92h-90v92h286l43 135h248l46-135h286v-92h-92v-773h-727v773z m92 0v-681h545v681h-545l0 0z m158-235h75v-190h-75v190z m152 0h75v-190h-75v190z" horiz-adv-x="1000" />

<glyph glyph-name="up-arrow" unicode="&#xe837;" d="M1016 350c0-277-223-500-500-500s-500 223-500 500c0 277 225 500 500 500s500-223 500-500z m-90 0c0 225-183 408-408 408s-411-183-411-408c0-225 184-408 409-408s410 183 410 408z m-650-61l59-59 181 180 180-180 60 59-240 240 0 0-1 0-239-240z" horiz-adv-x="1000" />

<glyph glyph-name="download" unicode="&#xe838;" d="M742 540c-52 108-163 181-288 181-166 0-302-129-316-292-82-35-138-116-138-208 0-125 102-227 227-227h500c150 0 273 123 273 273 0 146-115 264-258 273z m-15-455h-500c-75 0-135 61-137 140 0 63 41 117 102 131l35 9v35c0 2 0 2 0 4 0 125 102 227 227 227 98 0 184-62 215-152l10-33 36 2c4 0 8 0 12 0 100 0 181-81 181-181 0-100-81-182-181-182z m-181 228h89l-135-138-135 138h89v181h92l0-181 0 0z" horiz-adv-x="1000" />

<glyph glyph-name="drag-icon" unicode="&#xe839;" d="M1179 367c-4 4-10 10-16 14 8 42-5 88-38 119-10 10-21 17-31 23 10 42-2 90-36 123-10 10-25 21-37 27 6 40-6 75-33 102-48 48-125 48-173 0l-7-6c-52 52-133 52-185 2l-179-181c-46-46-52-130-59-217-2-40-8-106-18-123l-40-40 346-345 40 39c14 15 60 29 102 42 70 21 150 46 204 102 83 83 160 160 160 160 44 44 44 115 0 159z m-37-115c0 0-77-77-161-160s-252-90-306-144l-265 265c50 50 17 279 75 339l180 181c29 30 75 27 104-2l-104-104c-9-8-7-25 4-35s27-13 35-4l150 147c27 25 69 25 94 0s25-66 0-93l-31-32c29 30 75 28 104-2s29-77 2-104l-40-39c30 29 75 27 105-2s31-78 2-105l-27-27c20 21 56 21 79 0 23-23 23-56 0-79z" horiz-adv-x="1500" />

<glyph glyph-name="upload" unicode="&#xe83a;" d="M742 540c-52 108-163 181-288 181-166 0-302-129-316-292-82-35-138-116-138-208 0-125 102-227 227-227h500c150 0 273 123 273 273 0 146-115 264-258 273z m-15-455h-500c-75 0-135 61-137 140 0 63 41 117 102 131l35 9v35c0 2 0 2 0 4 0 125 102 227 227 227 98 0 184-62 215-152l10-33 36 2c4 0 8 0 12 0 100 0 181-81 181-181 0-100-81-182-181-182z m-273 271h-89l135 138 135-138h-89v-181h-92l0 181z" horiz-adv-x="1000" />

<glyph glyph-name="account" unicode="&#xe83b;" d="M789 46c-69 77-167 123-273 123-107 0-204-46-273-123 73-65 169-104 273-104 104 0 200 39 273 104z m-607 67c86 91 204 145 334 145 129 0 248-54 333-145 48 66 75 147 75 237 0 225-183 408-408 408s-409-183-409-408c0-87 27-171 75-237l0 0z m334 191c-100 0-182 81-182 181 0 100 82 182 182 182s181-82 181-182c0-100-81-181-181-181z m0 92c50 0 91 42 91 92s-41 91-91 91c-50 0-92-41-92-91s42-92 92-92z m0-546c-277 0-500 223-500 500 0 277 223 500 500 500 277 0 500-223 500-500 0-277-223-500-500-500z" horiz-adv-x="1000" />

<glyph glyph-name="list-view" unicode="&#xe83c;" d="M250 850h1000v-246h-1000v246z m0-377h1000v-246h-1000v246z m0-377h1000v-246h-1000v246z" horiz-adv-x="1500" />

<glyph glyph-name="table" unicode="&#xe83d;" d="M950 850h-700v-1000h1000v1000h-300z m-400-900h-200v200h200v-200z m0 300h-200v200h200v-200z m0 300h-200v200h200v-200z m300-600h-200v200h200v-200z m0 300h-200v200h200v-200z m0 300h-200v200h200v-200z m300-600h-200v200h200v-200z m0 300h-200v200h200v-200z m0 300h-200v200h200v-200z" horiz-adv-x="1500" />

<glyph glyph-name="info-circled-alt" unicode="&#xf086;" d="M0 350q0 95 37 182t100 149 149 100 183 37q95 0 182-37t149-100 100-149 37-182q0-95-37-182t-100-150-149-100-182-37q-96 0-183 37t-149 100-100 150-37 182z m117 0q0-71 28-137t75-112 112-75 137-28 136 28 112 75 75 112 28 137-28 136-75 112-112 75-136 28-137-28-112-75-75-112-28-136z m281 170q0 28 20 45t51 17q32 0 51-17t19-45-19-46-51-17q-32 0-51 17t-20 46z m5-402v299h132v-299h-132z" horiz-adv-x="937.5" />
</font>
</defs>
</svg>
